<svg width="32" height="32" viewBox="0 0 32 32" fill="none" xmlns="http://www.w3.org/2000/svg">
  <rect width="32" height="32" rx="8" fill="#0B0B14"/>
  <defs>
    <linearGradient id="g" x1="6" y1="6" x2="26" y2="26" gradientUnits="userSpaceOnUse">
      <stop stop-color="#8B7BFF"/>
      <stop offset="1" stop-color="#F5C542"/>
    </linearGradient>
  </defs>
  <path d="M16 6c-3.6 0-6.2 2.1-6.2 5.2 0 1.9 1 3.3 2.4 4.2l-2.1 6.1c-.2.6.3 1.2.9 1.1l3.3-.7c.5-.1.9-.5.9-1v-2.3c0-.3.2-.5.5-.5s.5.2.5.5V22c0 .5.4.9.9 1l2.6.5c.6.1 1.1-.5.9-1.1l-1.9-5.6c1.6-.9 2.8-2.4 2.8-4.4C24.4 8.4 20.8 6 16 6z" fill="url(#g)"/>
  <circle cx="14.2" cy="11.4" r="1.15" fill="#0B0B14"/>
</svg>
